<svg width="20" height="20" viewBox="0 0 20 20" fill="none" xmlns="http://www.w3.org/2000/svg">
<path d="M3.52082 15.6284L3.8141 15.9884L4.19474 15.7225C5.15779 15.0499 6.10526 14.5396 7.03705 14.1864C7.95245 13.8394 8.93875 13.664 10.0001 13.664C11.0614 13.664 12.0522 13.8394 12.9762 14.1869C13.9156 14.5401 14.8666 15.0503 15.8291 15.7225L16.2097 15.9884L16.503 15.6284C17.2261 14.741 17.7512 13.8312 18.065 12.8984C18.3743 11.9787 18.5279 11.0117 18.5279 10.0001C18.5279 7.5927 17.7131 5.5546 16.0794 3.92086C14.4456 2.28712 12.4075 1.47233 10.0001 1.47233C7.5927 1.47233 5.5546 2.28712 3.92086 3.92086C2.28712 5.5546 1.47233 7.5927 1.47233 10.0001C1.47233 11.0132 1.63027 11.9815 1.94835 12.9023C2.26994 13.8332 2.79828 14.7417 3.52082 15.6284ZM15.2906 16.7213L15.8192 16.3068L15.2704 15.9194C14.4347 15.3295 13.5763 14.8745 12.6952 14.5586C11.8092 14.241 10.9101 14.0807 10.0001 14.0807C9.09017 14.0807 8.19105 14.241 7.30499 14.5586C6.42391 14.8745 5.56552 15.3295 4.72982 15.9194L4.18105 16.3068L4.70959 16.7213C5.55233 17.3823 6.42109 17.8556 7.31615 18.1284C8.18989 18.3947 9.08508 18.5279 10.0001 18.5279C10.9151 18.5279 11.8103 18.3947 12.6841 18.1284C13.5791 17.8556 14.4479 17.3823 15.2906 16.7213ZM9.99572 10.2084C9.21386 10.2084 8.57697 9.94572 8.05241 9.41869C7.52724 8.89105 7.26539 8.25196 7.26539 7.46933C7.26539 6.68747 7.5281 6.05058 8.05514 5.52602C8.58278 5.00085 9.22186 4.739 10.0045 4.739C10.7864 4.739 11.4232 5.00171 11.9478 5.52875C12.473 6.05639 12.7348 6.69548 12.7348 7.47811C12.7348 8.25997 12.4721 8.89686 11.9451 9.42142C11.4174 9.94658 10.7784 10.2084 9.99572 10.2084ZM10.0112 18.9446C8.77859 18.9446 7.62266 18.7096 6.53848 18.2417C5.44557 17.7701 4.49529 17.1285 3.68352 16.3167C2.87149 15.5047 2.22981 14.556 1.75827 13.4667C1.29075 12.3868 1.05566 11.2308 1.05566 9.99383C1.05566 8.75682 1.29075 7.60323 1.758 6.52783C2.22947 5.44269 2.87118 4.49586 3.68352 3.68352C4.49556 2.87149 5.44422 2.22981 6.5335 1.75827C7.61346 1.29075 8.76939 1.05566 10.0064 1.05566C11.2434 1.05566 12.397 1.29075 13.4724 1.758C14.5575 2.22947 15.5044 2.87118 16.3167 3.68352C17.129 4.49583 17.7707 5.44288 18.2422 6.52851C18.7096 7.60467 18.9446 8.75648 18.9446 9.98906C18.9446 11.2216 18.7096 12.3776 18.2417 13.4617C17.7701 14.5547 17.1285 15.5049 16.3167 16.3167C15.5044 17.129 14.5573 17.7707 13.4717 18.2422C12.3955 18.7096 11.2437 18.9446 10.0112 18.9446ZM10.0001 9.79178C10.6508 9.79178 11.2204 9.58135 11.6641 9.13769C12.1077 8.69403 12.3182 8.12437 12.3182 7.47372C12.3182 6.82307 12.1077 6.25341 11.6641 5.80975C11.2204 5.36609 10.6508 5.15566 10.0001 5.15566C9.34946 5.15566 8.7798 5.36609 8.33614 5.80975C7.89248 6.25341 7.68205 6.82307 7.68205 7.47372C7.68205 8.12437 7.89248 8.69403 8.33614 9.13769C8.7798 9.58135 9.34946 9.79178 10.0001 9.79178Z" fill="#1C1B1F" stroke="#B5C3C9"/>
</svg>
