<svg width="20" height="20" viewBox="0 0 20 20" fill="none" xmlns="http://www.w3.org/2000/svg">
<path d="M3.52078 15.6284L3.81405 15.9884L4.19469 15.7225C5.15774 15.0499 6.10521 14.5396 7.037 14.1864C7.9524 13.8394 8.9387 13.664 10.0001 13.664C11.0614 13.664 12.0521 13.8394 12.9762 14.1869C13.9156 14.5401 14.8666 15.0503 15.829 15.7225L16.2097 15.9884L16.503 15.6284C17.2261 14.741 17.7512 13.8312 18.0649 12.8984C18.3743 11.9787 18.5278 11.0117 18.5278 10.0001C18.5278 7.5927 17.7131 5.5546 16.0793 3.92086C14.4456 2.28712 12.4075 1.47233 10.0001 1.47233C7.59266 1.47233 5.55455 2.28712 3.92081 3.92086C2.28708 5.5546 1.47229 7.5927 1.47229 10.0001C1.47229 11.0132 1.63022 11.9815 1.9483 12.9023C2.26989 13.8332 2.79824 14.7417 3.52078 15.6284ZM15.2906 16.7213L15.8191 16.3068L15.2703 15.9194C14.4346 15.3295 13.5763 14.8745 12.6952 14.5586C11.8091 14.241 10.91 14.0807 10.0001 14.0807C9.09012 14.0807 8.19101 14.241 7.30494 14.5586C6.42386 14.8745 5.56548 15.3295 4.72978 15.9194L4.18101 16.3068L4.70955 16.7213C5.55228 17.3823 6.42104 17.8556 7.31611 18.1284C8.18985 18.3947 9.08504 18.5279 10.0001 18.5279C10.9151 18.5279 11.8103 18.3947 12.684 18.1284C13.5791 17.8556 14.4478 17.3823 15.2906 16.7213ZM9.99567 10.2084C9.21381 10.2084 8.57693 9.94572 8.05236 9.41869C7.5272 8.89105 7.26534 8.25196 7.26534 7.46933C7.26534 6.68747 7.52806 6.05058 8.05509 5.52602C8.58273 5.00085 9.22182 4.739 10.0045 4.739C10.7863 4.739 11.4232 5.00171 11.9478 5.52875C12.4729 6.05639 12.7348 6.69548 12.7348 7.47811C12.7348 8.25997 12.4721 8.89686 11.945 9.42142C11.4174 9.94658 10.7783 10.2084 9.99567 10.2084ZM10.0111 18.9446C8.77854 18.9446 7.62262 18.7096 6.53844 18.2417C5.44552 17.7701 4.49525 17.1285 3.68348 16.3167C2.87144 15.5047 2.22976 14.556 1.75822 13.4667C1.29071 12.3868 1.05562 11.2308 1.05562 9.99383C1.05562 8.75682 1.29071 7.60323 1.75795 6.52783C2.22943 5.44269 2.87114 4.49586 3.68348 3.68352C4.49551 2.87149 5.44417 2.22981 6.53345 1.75827C7.61342 1.29075 8.76935 1.05566 10.0063 1.05566C11.2433 1.05566 12.3969 1.29075 13.4723 1.758C14.5575 2.22947 15.5043 2.87118 16.3166 3.68352C17.129 4.49583 17.7707 5.44288 18.2421 6.52851C18.7095 7.60467 18.9445 8.75648 18.9445 9.98906C18.9445 11.2216 18.7095 12.3776 18.2417 13.4617C17.7701 14.5547 17.1284 15.5049 16.3166 16.3167C15.5043 17.129 14.5573 17.7707 13.4717 18.2422C12.3955 18.7096 11.2437 18.9446 10.0111 18.9446ZM10.0001 9.79178C10.6507 9.79178 11.2204 9.58135 11.664 9.13769C12.1077 8.69403 12.3181 8.12437 12.3181 7.47372C12.3181 6.82307 12.1077 6.25341 11.664 5.80975C11.2204 5.36609 10.6507 5.15566 10.0001 5.15566C9.34941 5.15566 8.77975 5.36609 8.33609 5.80975C7.89244 6.25341 7.68201 6.82307 7.68201 7.47372C7.68201 8.12437 7.89244 8.69403 8.33609 9.13769C8.77975 9.58135 9.34941 9.79178 10.0001 9.79178Z" fill="#1C1B1F" stroke="#0A1419"/>
</svg>
