<svg width="24" height="24" viewBox="0 0 21 21" fill="none" xmlns="http://www.w3.org/2000/svg">
<path d="M10.6692 16.2219C11.0192 16.2219 11.3151 16.1011 11.5567 15.8594C11.7984 15.6178 11.9192 15.3219 11.9192 14.9719C11.9192 14.6219 11.7984 14.3261 11.5567 14.0844C11.3151 13.8428 11.0192 13.7219 10.6692 13.7219C10.3192 13.7219 10.0234 13.8428 9.78174 14.0844C9.54007 14.3261 9.41924 14.6219 9.41924 14.9719C9.41924 15.3219 9.54007 15.6178 9.78174 15.8594C10.0234 16.1011 10.3192 16.2219 10.6692 16.2219ZM9.76924 12.3719H11.6192C11.6192 11.8219 11.6817 11.3886 11.8067 11.0719C11.9317 10.7553 12.2859 10.3219 12.8692 9.77192C13.3026 9.33859 13.6442 8.92609 13.8942 8.53442C14.1442 8.14276 14.2692 7.67192 14.2692 7.12192C14.2692 6.18859 13.9276 5.47192 13.2442 4.97192C12.5609 4.47192 11.7526 4.22192 10.8192 4.22192C9.86924 4.22192 9.0984 4.47192 8.50674 4.97192C7.91507 5.47192 7.50257 6.07192 7.26924 6.77192L8.91924 7.42192C9.00257 7.12192 9.19007 6.79692 9.48174 6.44692C9.7734 6.09692 10.2192 5.92192 10.8192 5.92192C11.3526 5.92192 11.7526 6.06776 12.0192 6.35942C12.2859 6.65109 12.4192 6.97192 12.4192 7.32192C12.4192 7.65526 12.3192 7.96776 12.1192 8.25942C11.9192 8.55109 11.6692 8.82192 11.3692 9.07192C10.6359 9.72192 10.1859 10.2136 10.0192 10.5469C9.85257 10.8803 9.76924 11.4886 9.76924 12.3719ZM10.7192 20.2219C9.3359 20.2219 8.0359 19.9594 6.81924 19.4344C5.60257 18.9094 4.54424 18.1969 3.64424 17.2969C2.74424 16.3969 2.03174 15.3386 1.50674 14.1219C0.981738 12.9053 0.719238 11.6053 0.719238 10.2219C0.719238 8.83859 0.981738 7.53859 1.50674 6.32192C2.03174 5.10526 2.74424 4.04692 3.64424 3.14692C4.54424 2.24692 5.60257 1.53442 6.81924 1.00942C8.0359 0.484424 9.3359 0.221924 10.7192 0.221924C12.1026 0.221924 13.4026 0.484424 14.6192 1.00942C15.8359 1.53442 16.8942 2.24692 17.7942 3.14692C18.6942 4.04692 19.4067 5.10526 19.9317 6.32192C20.4567 7.53859 20.7192 8.83859 20.7192 10.2219C20.7192 11.6053 20.4567 12.9053 19.9317 14.1219C19.4067 15.3386 18.6942 16.3969 17.7942 17.2969C16.8942 18.1969 15.8359 18.9094 14.6192 19.4344C13.4026 19.9594 12.1026 20.2219 10.7192 20.2219ZM10.7192 18.2219C12.9526 18.2219 14.8442 17.4469 16.3942 15.8969C17.9442 14.3469 18.7192 12.4553 18.7192 10.2219C18.7192 7.98859 17.9442 6.09692 16.3942 4.54692C14.8442 2.99692 12.9526 2.22192 10.7192 2.22192C8.4859 2.22192 6.59424 2.99692 5.04424 4.54692C3.49424 6.09692 2.71924 7.98859 2.71924 10.2219C2.71924 12.4553 3.49424 14.3469 5.04424 15.8969C6.59424 17.4469 8.4859 18.2219 10.7192 18.2219Z" fill="#1C1B1F"/>
</svg>
