<svg width="24" height="24" viewBox="0 0 24 24" fill="none" xmlns="http://www.w3.org/2000/svg">
<path d="M11.1177 24V21.9638C8.66668 21.7119 6.60332 20.7481 4.92758 19.0724C3.25187 17.3967 2.28807 15.3333 2.03619 12.8823H0V11.1177H2.03619C2.28807 8.66668 3.25187 6.60332 4.92758 4.92758C6.60332 3.25187 8.66668 2.28807 11.1177 2.03619V0H12.8823V2.03619C15.3333 2.28807 17.3967 3.25187 19.0724 4.92758C20.7481 6.60332 21.7119 8.66668 21.9638 11.1177H24V12.8823H21.9638C21.7119 15.3333 20.7481 17.3967 19.0724 19.0724C17.3967 20.7481 15.3333 21.7119 12.8823 21.9638V24H11.1177ZM12 20.2353C14.2745 20.2353 16.2157 19.4314 17.8236 17.8236C19.4314 16.2157 20.2353 14.2745 20.2353 12C20.2353 9.72548 19.4314 7.78429 17.8236 6.17644C16.2157 4.56859 14.2745 3.76467 12 3.76467C9.72548 3.76467 7.78429 4.56859 6.17644 6.17644C4.56859 7.78429 3.76467 9.72548 3.76467 12C3.76467 14.2745 4.56859 16.2157 6.17644 17.8236C7.78429 19.4314 9.72548 20.2353 12 20.2353ZM12 16.1176C10.8677 16.1176 9.8983 15.7145 9.09193 14.9081C8.28555 14.1017 7.88236 13.1323 7.88236 12C7.88236 10.8677 8.28555 9.8983 9.09193 9.09193C9.8983 8.28555 10.8677 7.88236 12 7.88236C13.1323 7.88236 14.1017 8.28555 14.9081 9.09193C15.7145 9.8983 16.1176 10.8677 16.1176 12C16.1176 13.1323 15.7145 14.1017 14.9081 14.9081C14.1017 15.7145 13.1323 16.1176 12 16.1176ZM12 14.353C12.6471 14.353 13.201 14.1226 13.6618 13.6618C14.1226 13.201 14.353 12.6471 14.353 12C14.353 11.3529 14.1226 10.799 13.6618 10.3382C13.201 9.87744 12.6471 9.64705 12 9.64705C11.3529 9.64705 10.799 9.87744 10.3382 10.3382C9.87744 10.799 9.64705 11.3529 9.64705 12C9.64705 12.6471 9.87744 13.201 10.3382 13.6618C10.799 14.1226 11.3529 14.353 12 14.353Z" fill="#1793D1"/>
</svg>
