<svg width="48" height="48" viewBox="0 0 48 48" fill="none" xmlns="http://www.w3.org/2000/svg">
<mask id="mask0_513_3658" style="mask-type:alpha" maskUnits="userSpaceOnUse" x="0" y="0" width="48" height="48">
<rect width="48" height="48" fill="#D9D9D9"/>
</mask>
<g mask="url(#mask0_513_3658)">
<path d="M40 8V19H37V13.15L27.8 22.3C28.5 23.2667 29.0417 24.325 29.425 25.475C29.8083 26.625 30 27.8 30 29C30 32.0667 28.9333 34.6667 26.8 36.8C24.6667 38.9333 22.0667 40 19 40C15.9333 40 13.3333 38.9333 11.2 36.8C9.06667 34.6667 8 32.0667 8 29C8 25.9333 9.06667 23.3333 11.2 21.2C13.3333 19.0667 15.9333 18 19 18C20.2 18 21.3667 18.1917 22.5 18.575C23.6333 18.9583 24.6833 19.5 25.65 20.2L34.85 11H29V8H40ZM19.0101 21C16.8034 21 14.9167 21.78 13.35 23.3399C11.7833 24.8998 11 26.7832 11 28.9899C11 31.1966 11.78 33.0833 13.3399 34.65C14.8998 36.2167 16.7832 37 18.9899 37C21.1966 37 23.0833 36.22 24.65 34.6601C26.2167 33.1002 27 31.2168 27 29.0101C27 26.8034 26.22 24.9167 24.6601 23.35C23.1002 21.7833 21.2168 21 19.0101 21Z" fill="#1C1B1F"/>
</g>
</svg>
