<svg width="48" height="48" viewBox="0 0 48 48" fill="none" xmlns="http://www.w3.org/2000/svg">
<mask id="mask0_513_3652" style="mask-type:alpha" maskUnits="userSpaceOnUse" x="0" y="0" width="48" height="48">
<rect width="48" height="48" fill="#D9D9D9"/>
</mask>
<g mask="url(#mask0_513_3652)">
<path d="M22.5 42V38H18.5V35H22.5V29.9C19.7667 29.5333 17.5 28.3049 15.7 26.2147C13.9 24.1245 13 21.7029 13 18.95C13 15.9028 14.075 13.316 16.225 11.1896C18.375 9.06318 20.9667 8 24 8C27.0333 8 29.625 9.06318 31.775 11.1896C33.925 13.316 35 15.9028 35 18.95C35 21.7029 34.1 24.1245 32.3 26.2147C30.5 28.3049 28.2333 29.5333 25.5 29.9V35H29.5V38H25.5V42H22.5ZM23.9899 27C26.1966 27 28.0833 26.22 29.65 24.6601C31.2167 23.1002 32 21.2168 32 19.0101C32 16.8034 31.22 14.9167 29.6601 13.35C28.1002 11.7833 26.2168 11 24.0101 11C21.8034 11 19.9167 11.78 18.35 13.3399C16.7833 14.8998 16 16.7832 16 18.9899C16 21.1966 16.78 23.0833 18.3399 24.65C19.8998 26.2167 21.7832 27 23.9899 27Z" fill="#1C1B1F"/>
</g>
</svg>
