<svg width="48" height="48" viewBox="0 0 48 48" fill="none" xmlns="http://www.w3.org/2000/svg">
<mask id="mask0_513_3663" style="mask-type:alpha" maskUnits="userSpaceOnUse" x="0" y="0" width="48" height="48">
<rect width="48" height="48" fill="#D9D9D9"/>
</mask>
<g mask="url(#mask0_513_3663)">
<path d="M23.9899 31C26.1966 31 28.0833 30.22 29.65 28.6601C31.2167 27.1002 32 25.2168 32 23.0101C32 20.8034 31.22 18.9167 29.6601 17.35C28.1002 15.7833 26.2168 15 24.0101 15C21.8034 15 19.9167 15.78 18.35 17.3399C16.7833 18.8998 16 20.7832 16 22.9899C16 25.1966 16.78 27.0833 18.3399 28.65C19.8998 30.2167 21.7832 31 23.9899 31ZM22.5 46V42H18.5V39H22.5V33.95C19.7556 33.4799 17.4861 32.2207 15.6917 30.1724C13.8972 28.1241 13 25.7333 13 23C13 21.8 13.1833 20.6315 13.55 19.4945C13.9167 18.3575 14.4667 17.3093 15.2 16.35L13.1 14.25L10.3 17.05L8.2 14.95L11 12.15L6 7.15V13H3V2H14V5H8.15L13.15 10L15.95 7.2L18.05 9.3L15.25 12.1L17.4 14.25C18.3667 13.5167 19.4083 12.9583 20.525 12.575C21.6417 12.1917 22.8 12 24 12C25.2 12 26.3667 12.1833 27.5 12.55C28.6333 12.9167 29.6833 13.4667 30.65 14.2L39.85 5H34V2H45V13H42V7.15L32.8 16.35C33.5333 17.3167 34.0833 18.3629 34.45 19.4887C34.8167 20.6144 35 21.7849 35 23C35 25.7333 34.1028 28.1241 32.3083 30.1724C30.5139 32.2207 28.2444 33.4799 25.5 33.95V39H29.5V42H25.5V46H22.5Z" fill="#1C1B1F"/>
</g>
</svg>
