<svg width="32" height="32" viewBox="0 0 32 32" fill="none" xmlns="http://www.w3.org/2000/svg">
<mask id="mask0_929_3003" style="mask-type:alpha" maskUnits="userSpaceOnUse" x="-2" y="-2" width="36" height="36">
<rect x="-2" y="-2" width="36" height="36" fill="#D9D9D9"/>
</mask>
<g mask="url(#mask0_929_3003)">
<path d="M16 22L22 16L16 10L13.9 12.1L16.3 14.5H10V17.5H16.3L13.9 19.9L16 22ZM16 31C13.925 31 11.975 30.6062 10.15 29.8187C8.325 29.0312 6.7375 27.9625 5.3875 26.6125C4.0375 25.2625 2.96875 23.675 2.18125 21.85C1.39375 20.025 1 18.075 1 16C1 13.925 1.39375 11.975 2.18125 10.15C2.96875 8.325 4.0375 6.7375 5.3875 5.3875C6.7375 4.0375 8.325 2.96875 10.15 2.18125C11.975 1.39375 13.925 1 16 1C18.075 1 20.025 1.39375 21.85 2.18125C23.675 2.96875 25.2625 4.0375 26.6125 5.3875C27.9625 6.7375 29.0312 8.325 29.8187 10.15C30.6062 11.975 31 13.925 31 16C31 18.075 30.6062 20.025 29.8187 21.85C29.0312 23.675 27.9625 25.2625 26.6125 26.6125C25.2625 27.9625 23.675 29.0312 21.85 29.8187C20.025 30.6062 18.075 31 16 31ZM16 28C19.35 28 22.1875 26.8375 24.5125 24.5125C26.8375 22.1875 28 19.35 28 16C28 12.65 26.8375 9.8125 24.5125 7.4875C22.1875 5.1625 19.35 4 16 4C12.65 4 9.8125 5.1625 7.4875 7.4875C5.1625 9.8125 4 12.65 4 16C4 19.35 5.1625 22.1875 7.4875 24.5125C9.8125 26.8375 12.65 28 16 28Z" fill="#F9F9F9"/>
</g>
</svg>
