<svg width="16" height="16" viewBox="0 0 16 16" fill="none" xmlns="http://www.w3.org/2000/svg">
<path d="M8.00012 7.33325C8.55241 7.33325 9.00012 6.88554 9.00012 6.33325C9.00012 5.78097 8.55241 5.33325 8.00012 5.33325C7.44784 5.33325 7.00012 5.78097 7.00012 6.33325C7.00012 6.88554 7.44784 7.33325 8.00012 7.33325Z" fill="#0A1419"/>
<path d="M7.99996 1.33325C6.59466 1.33318 5.24613 1.88776 4.24745 2.87645C3.24878 3.86513 2.68068 5.20803 2.66663 6.61325C2.66663 10.2666 7.36663 14.3333 7.56663 14.5066C7.68738 14.6099 7.84106 14.6666 7.99996 14.6666C8.15886 14.6666 8.31254 14.6099 8.43329 14.5066C8.66663 14.3333 13.3333 10.2666 13.3333 6.61325C13.3192 5.20803 12.7511 3.86513 11.7525 2.87645C10.7538 1.88776 9.40526 1.33318 7.99996 1.33325ZM7.99996 8.66659C7.53847 8.66659 7.08734 8.52974 6.70363 8.27335C6.31991 8.01696 6.02084 7.65254 5.84424 7.22618C5.66764 6.79982 5.62143 6.33066 5.71146 5.87804C5.80149 5.42542 6.02372 5.00966 6.35004 4.68334C6.67637 4.35701 7.09213 4.13479 7.54475 4.04475C7.99737 3.95472 8.46653 4.00093 8.89289 4.17753C9.31925 4.35414 9.68367 4.65321 9.94006 5.03692C10.1964 5.42064 10.3333 5.87176 10.3333 6.33325C10.3333 6.95209 10.0875 7.54558 9.64988 7.98317C9.21229 8.42075 8.6188 8.66659 7.99996 8.66659Z" fill="#0A1419"/>
</svg>
