<svg width="24" height="24" viewBox="0 0 24 24" fill="none" xmlns="http://www.w3.org/2000/svg">
<mask id="mask0_513_4559" style="mask-type:alpha" maskUnits="userSpaceOnUse" x="0" y="0" width="24" height="24">
<rect width="24" height="24" fill="#D9D9D9"/>
</mask>
<g mask="url(#mask0_513_4559)">
<path d="M6.5 19C5.25257 19 4.19071 18.5647 3.31442 17.6942C2.43814 16.8237 2 15.7647 2 14.5173C2 13.3712 2.39167 12.3538 3.175 11.4654C3.95833 10.5769 4.93205 10.1 6.09615 10.0346C6.32052 8.5782 6.99039 7.375 8.10577 6.425C9.22116 5.475 10.5192 5 12 5C13.6679 5 15.0849 5.58301 16.251 6.74902C17.417 7.91506 18 9.33205 18 11V12H18.6154C19.5731 12.0308 20.3766 12.3824 21.026 13.0548C21.6753 13.7272 22 14.5423 22 15.5C22 16.4808 21.6619 17.3093 20.9856 17.9856C20.3093 18.6619 19.4808 19 18.5 19H6.5ZM6.5 18H18.5C19.2 18 19.7917 17.7583 20.275 17.275C20.7583 16.7917 21 16.2 21 15.5C21 14.8 20.7583 14.2083 20.275 13.725C19.7917 13.2417 19.2 13 18.5 13H17V11C17 9.61667 16.5125 8.4375 15.5375 7.4625C14.5625 6.4875 13.3833 6 12 6C10.6167 6 9.4375 6.4875 8.4625 7.4625C7.4875 8.4375 7 9.61667 7 11H6.5C5.53333 11 4.70833 11.3417 4.025 12.025C3.34167 12.7083 3 13.5333 3 14.5C3 15.4667 3.34167 16.2917 4.025 16.975C4.70833 17.6583 5.53333 18 6.5 18Z" fill="#3A5F77"/>
</g>
</svg>
