<svg width="24" height="24" viewBox="0 0 24 24" fill="none" xmlns="http://www.w3.org/2000/svg">
<mask id="mask0_513_4553" style="mask-type:alpha" maskUnits="userSpaceOnUse" x="0" y="0" width="24" height="24">
<rect width="24" height="24" fill="#D9D9D9"/>
</mask>
<g mask="url(#mask0_513_4553)">
<path d="M6 18.6154C5.82563 18.6154 5.67948 18.5564 5.56153 18.4385C5.44359 18.3205 5.38462 18.1744 5.38462 18C5.38462 17.8256 5.44359 17.6795 5.56153 17.5615C5.67948 17.4436 5.82563 17.3846 6 17.3846C6.17437 17.3846 6.32053 17.4436 6.43848 17.5615C6.55641 17.6795 6.61538 17.8256 6.61538 18C6.61538 18.1744 6.55641 18.3205 6.43848 18.4385C6.32053 18.5564 6.17437 18.6154 6 18.6154ZM18 18.6154C17.8256 18.6154 17.6795 18.5564 17.5615 18.4385C17.4436 18.3205 17.3846 18.1744 17.3846 18C17.3846 17.8256 17.4436 17.6795 17.5615 17.5615C17.6795 17.4436 17.8256 17.3846 18 17.3846C18.1744 17.3846 18.3205 17.4436 18.4385 17.5615C18.5564 17.6795 18.6154 17.8256 18.6154 18C18.6154 18.1744 18.5564 18.3205 18.4385 18.4385C18.3205 18.5564 18.1744 18.6154 18 18.6154ZM9 22.6154C8.82563 22.6154 8.67947 22.5564 8.56152 22.4385C8.44359 22.3205 8.38463 22.1744 8.38463 22C8.38463 21.8256 8.44359 21.6795 8.56152 21.5616C8.67947 21.4436 8.82563 21.3846 9 21.3846C9.17437 21.3846 9.32053 21.4436 9.43848 21.5615C9.55641 21.6795 9.61538 21.8256 9.61538 22C9.61538 22.1744 9.55641 22.3205 9.43848 22.4385C9.32053 22.5564 9.17437 22.6154 9 22.6154ZM12 18.6154C11.8256 18.6154 11.6795 18.5564 11.5615 18.4385C11.4436 18.3205 11.3846 18.1744 11.3846 18C11.3846 17.8256 11.4436 17.6795 11.5615 17.5615C11.6795 17.4436 11.8256 17.3846 12 17.3846C12.1744 17.3846 12.3205 17.4436 12.4385 17.5615C12.5564 17.6795 12.6154 17.8256 12.6154 18C12.6154 18.1744 12.5564 18.3205 12.4385 18.4385C12.3205 18.5564 12.1744 18.6154 12 18.6154ZM15 22.6154C14.8256 22.6154 14.6795 22.5564 14.5615 22.4385C14.4436 22.3205 14.3846 22.1744 14.3846 22C14.3846 21.8256 14.4436 21.6795 14.5615 21.5616C14.6795 21.4436 14.8256 21.3846 15 21.3846C15.1744 21.3846 15.3205 21.4436 15.4385 21.5615C15.5564 21.6795 15.6154 21.8256 15.6154 22C15.6154 22.1744 15.5564 22.3205 15.4385 22.4385C15.3205 22.5564 15.1744 22.6154 15 22.6154ZM7.5 15.5C6.11153 15.5 4.93108 15.0138 3.95865 14.0414C2.98622 13.0689 2.5 11.8885 2.5 10.5C2.5 9.20642 2.9359 8.08782 3.8077 7.14422C4.67948 6.20064 5.77115 5.65641 7.0827 5.51152C7.57873 4.57351 8.25691 3.83708 9.11723 3.30225C9.97754 2.76742 10.936 2.5 11.9926 2.5C13.4334 2.5 14.6696 2.97596 15.701 3.92787C16.7324 4.87981 17.3327 6.06603 17.5019 7.48653C18.7288 7.56089 19.7019 7.98782 20.4212 8.7673C21.1404 9.54678 21.5 10.4596 21.5 11.5058C21.5 12.6109 21.1111 13.5529 20.3333 14.3317C19.5556 15.1106 18.6111 15.5 17.5 15.5H7.5ZM7.5 14.5H17.5C18.3282 14.5 19.0353 14.2071 19.6212 13.6212C20.2071 13.0352 20.5 12.3282 20.5 11.5C20.5 10.6718 20.2071 9.96475 19.6212 9.37885C19.0353 8.79295 18.3282 8.5 17.5 8.5H16.5V8C16.5 6.7625 16.0591 5.70312 15.1773 4.82188C14.2954 3.94063 13.2354 3.5 11.9971 3.5C11.0965 3.5 10.2761 3.74444 9.5359 4.23333C8.79572 4.72223 8.23824 5.38035 7.86348 6.2077L7.74532 6.5H7.45C6.36232 6.5381 5.43207 6.94287 4.65925 7.7143C3.88642 8.48572 3.5 9.41428 3.5 10.5C3.5 11.6048 3.89047 12.5476 4.67142 13.3286C5.45237 14.1095 6.39523 14.5 7.5 14.5Z" fill="#3A5F77"/>
</g>
</svg>
