<svg width="24" height="24" viewBox="0 0 24 24" fill="none" xmlns="http://www.w3.org/2000/svg">
<mask id="mask0_513_4547" style="mask-type:alpha" maskUnits="userSpaceOnUse" x="0" y="0" width="24" height="24">
<rect width="24" height="24" fill="#D9D9D9"/>
</mask>
<g mask="url(#mask0_513_4547)">
<path d="M11.5 5.42295V2.03833H12.5V5.42295H11.5ZM16.9961 7.71143L16.2884 6.98448L18.6904 4.57681L19.3981 5.3095L16.9961 7.71143ZM18.5769 12.4999V11.4999H21.9615V12.4999H18.5769ZM18.6904 19.398L16.2884 16.996L17.0154 16.2691L19.4231 18.6653L18.6904 19.398ZM7.02305 7.73066L4.58265 5.29025L5.31535 4.59603L7.73075 7.02295L7.02305 7.73066ZM6.5769 19.1153H10.6923C11.2372 19.1153 11.7067 18.9181 12.1009 18.5239C12.4952 18.1297 12.6923 17.6601 12.6923 17.1153C12.6923 16.5704 12.5025 16.104 12.1231 15.7162C11.7436 15.3284 11.2814 15.1345 10.7365 15.1345H9.7692L9.40383 14.2614C9.14485 13.6601 8.74292 13.1842 8.19805 12.8335C7.65319 12.4829 7.0487 12.3076 6.3846 12.3076C5.46152 12.3076 4.67946 12.6281 4.03843 13.2691C3.39741 13.9101 3.0769 14.6922 3.0769 15.6153C3.0769 16.5896 3.41665 17.4165 4.09613 18.096C4.77561 18.7755 5.60254 19.1153 6.5769 19.1153ZM6.5769 20.1153C5.33459 20.1153 4.274 19.6759 3.39515 18.797C2.51632 17.9182 2.0769 16.8576 2.0769 15.6153C2.0769 14.4114 2.49389 13.3925 3.32785 12.5585C4.16184 11.7246 5.18075 11.3076 6.3846 11.3076C7.29485 11.3076 8.12081 11.5656 8.86248 12.0816C9.60415 12.5976 10.1301 13.2819 10.4404 14.1345C11.2788 14.1345 12.0272 14.3871 12.6856 14.8922C13.3439 15.3973 13.6795 16.1435 13.6923 17.1307C13.6846 17.9525 13.3913 18.6553 12.8125 19.2393C12.2336 19.8233 11.5269 20.1153 10.6923 20.1153H6.5769ZM13.6538 16.746C13.609 16.5794 13.5641 16.4178 13.5192 16.2614C13.4743 16.105 13.4295 15.9435 13.3846 15.7768C14.1731 15.4473 14.8061 14.946 15.2836 14.273C15.7612 13.5999 16 12.8422 16 11.9999C16 10.8999 15.6083 9.95821 14.825 9.17488C14.0416 8.39155 13.1 7.99988 12 7.99988C10.9615 7.99988 10.0609 8.34731 9.29805 9.04218C8.53524 9.73706 8.1128 10.6037 8.03075 11.6422C7.86409 11.5973 7.6955 11.5544 7.52498 11.5133C7.35446 11.4723 7.18587 11.4294 7.0192 11.3845C7.17562 10.123 7.7285 9.0768 8.67785 8.24603C9.62722 7.41526 10.7346 6.99988 12 6.99988C13.3846 6.99988 14.5641 7.48705 15.5385 8.4614C16.5128 9.43577 17 10.6153 17 11.9999C17 13.0653 16.6942 14.0271 16.0827 14.8855C15.4711 15.7438 14.6615 16.364 13.6538 16.746Z" fill="#3A5F77"/>
</g>
</svg>
