<svg width="24" height="24" viewBox="0 0 24 24" fill="none" xmlns="http://www.w3.org/2000/svg">
<mask id="mask0_553_2293" style="mask-type:alpha" maskUnits="userSpaceOnUse" x="0" y="0" width="24" height="24">
<rect width="24" height="24" fill="#D9D9D9"/>
</mask>
<g mask="url(#mask0_553_2293)">
<path d="M13.1 22.0001H10.5L10.7123 21.8449C10.8538 21.7414 11.0078 21.6255 11.1741 21.4972C11.3404 21.3689 11.4943 21.253 11.6358 21.1496L11.8481 20.9943H13.2327C14.6724 20.9713 16.0048 20.595 17.2298 19.8655C18.4548 19.136 19.4199 18.1392 20.125 16.8751C18.6917 16.741 17.3333 16.3765 16.05 15.7816C14.7667 15.1867 13.6167 14.3781 12.6 13.3559C11.5962 12.3392 10.791 11.1892 10.1846 9.90588C9.57821 8.62255 9.21667 7.27062 9.1 5.8501C7.81667 6.56677 6.8125 7.55427 6.0875 8.8126C5.3625 10.0709 5 11.4334 5 12.9001C5 13.1001 5.00962 13.3136 5.02885 13.5405C5.04808 13.7674 5.07693 13.9745 5.11538 14.1616L4.96923 14.2126C4.87179 14.2466 4.75993 14.2847 4.63365 14.327C4.50737 14.3693 4.39551 14.4107 4.29808 14.4511L4.15193 14.5116C4.10576 14.2514 4.0689 13.986 4.04135 13.7155C4.01378 13.445 4 13.1732 4 12.9001C4 10.954 4.56026 9.19914 5.68078 7.63568C6.80129 6.07221 8.2795 4.98215 10.1154 4.36548C10.0462 5.92573 10.2853 7.42605 10.8327 8.86645C11.3801 10.3068 12.2071 11.5802 13.3135 12.6866C14.4199 13.793 15.6933 14.62 17.1337 15.1674C18.5741 15.7148 20.0744 15.9539 21.6346 15.8847C21.0218 17.7206 19.9327 19.1988 18.3673 20.3193C16.8019 21.4398 15.0462 22.0001 13.1 22.0001ZM6 21.0001H10.5C10.9167 21.0001 11.2708 20.8543 11.5625 20.5626C11.8542 20.2709 12 19.9168 12 19.5001C12 19.0834 11.8583 18.7293 11.575 18.4376C11.2917 18.1459 10.95 18.0001 10.55 18.0001H9.25L8.75 16.8001C8.51667 16.2501 8.15 15.8126 7.65 15.4876C7.15 15.1626 6.6 15.0001 6 15.0001C5.16667 15.0001 4.45833 15.2876 3.875 15.8626C3.29167 16.4376 3 17.1501 3 18.0001C3 18.8334 3.29167 19.5418 3.875 20.1251C4.45833 20.7084 5.16667 21.0001 6 21.0001ZM6 22.0001C4.8859 21.9745 3.94071 21.5767 3.16443 20.8068C2.38814 20.037 2 19.0995 2 17.9944C2 16.8893 2.38814 15.9473 3.16443 15.1684C3.94071 14.3895 4.88657 14.0001 6.00203 14.0001C6.80838 14.0001 7.54149 14.2189 8.20138 14.6564C8.86128 15.0939 9.3512 15.6828 9.67115 16.4232L9.92115 17.0001H10.5366C11.2173 17.0078 11.7981 17.2551 12.2789 17.742C12.7596 18.2289 13 18.815 13 19.5003C13 20.1976 12.7577 20.7886 12.2731 21.2732C11.7885 21.7578 11.1974 22.0001 10.5 22.0001L6 22.0001Z" fill="#3A5F77"/>
</g>
</svg>
