<svg width="24" height="24" viewBox="0 0 24 24" fill="none" xmlns="http://www.w3.org/2000/svg">
<mask id="mask0_513_4556" style="mask-type:alpha" maskUnits="userSpaceOnUse" x="0" y="0" width="24" height="24">
<rect width="24" height="24" fill="#D9D9D9"/>
</mask>
<g mask="url(#mask0_513_4556)">
<path d="M13.8154 21.6115C13.6936 21.6808 13.5676 21.692 13.4375 21.6452C13.3074 21.5984 13.2077 21.5141 13.1385 21.3923L11.4462 18.0077C11.3769 17.8859 11.3657 17.7599 11.4125 17.6298C11.4593 17.4997 11.5436 17.4 11.6654 17.3308C11.7872 17.2615 11.9163 17.2535 12.0529 17.3067C12.1894 17.3599 12.2923 17.4474 12.3616 17.5692L14.0539 20.9346C14.1231 21.0564 14.1311 21.1824 14.0779 21.3125C14.0247 21.4426 13.9372 21.5423 13.8154 21.6115ZM19.8346 21.6115C19.7128 21.6808 19.5869 21.692 19.4567 21.6452C19.3266 21.5984 19.2269 21.5141 19.1577 21.3923L17.4654 18.0077C17.3961 17.8859 17.3849 17.7599 17.4317 17.6298C17.4785 17.4997 17.5628 17.4 17.6846 17.3308C17.8064 17.2615 17.9356 17.2535 18.0721 17.3067C18.2087 17.3599 18.3115 17.4474 18.3808 17.5692L20.0731 20.9346C20.1423 21.0564 20.1503 21.1824 20.0971 21.3125C20.0439 21.4426 19.9564 21.5423 19.8346 21.6115ZM7.81537 21.6115C7.69359 21.6808 7.56442 21.692 7.42788 21.6452C7.29134 21.5984 7.18846 21.5141 7.11923 21.3923L5.42692 18.0077C5.35769 17.8859 5.34968 17.7599 5.40288 17.6298C5.45609 17.4997 5.54359 17.4 5.66538 17.3308C5.78718 17.2615 5.91314 17.2535 6.04328 17.3067C6.17341 17.3599 6.27308 17.4474 6.3423 17.5692L8.03463 20.9346C8.10386 21.0564 8.11508 21.1824 8.06827 21.3125C8.02147 21.4426 7.93717 21.5423 7.81537 21.6115ZM7.5 15.5C6.11153 15.5 4.93108 15.0138 3.95865 14.0414C2.98622 13.0689 2.5 11.8885 2.5 10.5C2.5 9.20642 2.9359 8.08782 3.8077 7.14422C4.67948 6.20064 5.77115 5.65641 7.0827 5.51152C7.57757 4.57436 8.25545 3.83814 9.11635 3.30287C9.97725 2.76762 10.9385 2.5 12 2.5C13.4359 2.5 14.6696 2.97596 15.701 3.92787C16.7324 4.87981 17.3327 6.06603 17.5019 7.48653C18.7288 7.56089 19.7019 7.98782 20.4212 8.7673C21.1404 9.54678 21.5 10.4577 21.5 11.5C21.5 12.609 21.1106 13.5529 20.3317 14.3317C19.5529 15.1106 18.609 15.5 17.5 15.5H7.5ZM7.5 14.5H17.5C18.3282 14.5 19.0353 14.2071 19.6212 13.6212C20.2071 13.0352 20.5 12.3282 20.5 11.5C20.5 10.6718 20.2071 9.96475 19.6212 9.37885C19.0353 8.79295 18.3282 8.5 17.5 8.5H16.5V8C16.5 6.75898 16.0603 5.69872 15.1808 4.81922C14.3013 3.93974 13.241 3.5 12 3.5C11.0974 3.5 10.2753 3.74552 9.53365 4.23655C8.79198 4.72757 8.23526 5.38462 7.86348 6.2077L7.74808 6.5H7.45C6.35898 6.53333 5.42789 6.93557 4.65672 7.70672C3.88557 8.47789 3.5 9.40898 3.5 10.5C3.5 11.6077 3.88974 12.5513 4.66922 13.3308C5.44872 14.1103 6.39232 14.5 7.5 14.5Z" fill="#3A5F77"/>
</g>
</svg>
