<svg width="192" height="35" viewBox="0 0 192 35" fill="none" xmlns="http://www.w3.org/2000/svg">
<rect x="141.701" y="19" width="16" height="16" fill="#F26648"/>
<rect x="157.663" y="19" width="16" height="16" fill="#A24430"/>
<rect x="125.738" y="19" width="16" height="16" fill="#F59D4C"/>
<rect x="109.776" y="19" width="16" height="16" fill="#F5D633"/>
<rect x="61.8877" y="19" width="16" height="16" fill="#5571AE"/>
<rect x="77.8506" y="19" width="16" height="16" fill="#B3A17E"/>
<rect x="93.8127" y="19" width="16" height="16" fill="#E9DEB8"/>
<rect x="45.925" y="19" width="16" height="16" fill="#1C4893"/>
<rect x="29.9626" y="19" width="16" height="16" fill="#002768"/>
<rect x="14" y="19" width="16" height="16" fill="#011840"/>
<path d="M4.648 13.084C3.92 13.084 3.26667 12.9113 2.688 12.566C2.11867 12.2207 1.666 11.754 1.33 11.166C1.00333 10.578 0.84 9.91533 0.84 9.178C0.84 8.43133 0.994 7.764 1.302 7.176C1.61 6.588 2.03467 6.126 2.576 5.79C3.11733 5.44467 3.738 5.272 4.438 5.272C5.03533 5.272 5.58133 5.38867 6.076 5.622C6.57067 5.846 7 6.19133 7.364 6.658C7.43867 6.75133 7.46667 6.84933 7.448 6.952C7.42933 7.05467 7.36867 7.13867 7.266 7.204C7.182 7.26933 7.08867 7.29733 6.986 7.288C6.88333 7.26933 6.79467 7.21333 6.72 7.12C6.12267 6.41067 5.362 6.056 4.438 6.056C3.88733 6.056 3.402 6.19133 2.982 6.462C2.57133 6.73267 2.24933 7.10133 2.016 7.568C1.792 8.03467 1.68 8.57133 1.68 9.178C1.68 9.766 1.806 10.298 2.058 10.774C2.31 11.2407 2.65533 11.614 3.094 11.894C3.542 12.1647 4.06 12.3 4.648 12.3C5.03067 12.3 5.39 12.244 5.726 12.132C6.07133 12.02 6.37 11.8473 6.622 11.614C6.706 11.5393 6.79933 11.4973 6.902 11.488C7.00467 11.4787 7.09333 11.5113 7.168 11.586C7.26133 11.67 7.308 11.768 7.308 11.88C7.31733 11.9827 7.28 12.0713 7.196 12.146C6.51467 12.7713 5.66533 13.084 4.648 13.084ZM13.0588 13.084C12.3122 13.084 11.6402 12.916 11.0428 12.58C10.4548 12.2347 9.98816 11.768 9.64283 11.18C9.30683 10.5827 9.13883 9.91533 9.13883 9.178C9.13883 8.43133 9.30683 7.764 9.64283 7.176C9.98816 6.57867 10.4548 6.112 11.0428 5.776C11.6402 5.43067 12.3122 5.258 13.0588 5.258C13.8055 5.258 14.4728 5.43067 15.0608 5.776C15.6488 6.112 16.1108 6.57867 16.4468 7.176C16.7922 7.764 16.9648 8.43133 16.9648 9.178C16.9648 9.91533 16.7922 10.5827 16.4468 11.18C16.1108 11.768 15.6488 12.2347 15.0608 12.58C14.4728 12.916 13.8055 13.084 13.0588 13.084ZM13.0588 12.3C13.6468 12.3 14.1695 12.1647 14.6268 11.894C15.0935 11.614 15.4575 11.2407 15.7188 10.774C15.9895 10.298 16.1248 9.76133 16.1248 9.164C16.1248 8.576 15.9895 8.04867 15.7188 7.582C15.4575 7.106 15.0935 6.73267 14.6268 6.462C14.1695 6.182 13.6468 6.042 13.0588 6.042C12.4802 6.042 11.9575 6.182 11.4908 6.462C11.0242 6.73267 10.6555 7.106 10.3848 7.582C10.1142 8.04867 9.97883 8.58067 9.97883 9.178C9.97883 9.766 10.1142 10.298 10.3848 10.774C10.6555 11.2407 11.0242 11.614 11.4908 11.894C11.9575 12.1647 12.4802 12.3 13.0588 12.3ZM22.5608 13.084C21.8141 13.084 21.1421 12.916 20.5448 12.58C19.9568 12.2347 19.4901 11.768 19.1448 11.18C18.8088 10.5827 18.6408 9.91533 18.6408 9.178C18.6408 8.43133 18.8088 7.764 19.1448 7.176C19.4901 6.57867 19.9568 6.112 20.5448 5.776C21.1421 5.43067 21.8141 5.258 22.5608 5.258C23.3074 5.258 23.9748 5.43067 24.5628 5.776C25.1508 6.112 25.6128 6.57867 25.9488 7.176C26.2941 7.764 26.4668 8.43133 26.4668 9.178C26.4668 9.91533 26.2941 10.5827 25.9488 11.18C25.6128 11.768 25.1508 12.2347 24.5628 12.58C23.9748 12.916 23.3074 13.084 22.5608 13.084ZM22.5608 12.3C23.1488 12.3 23.6714 12.1647 24.1288 11.894C24.5954 11.614 24.9594 11.2407 25.2208 10.774C25.4914 10.298 25.6268 9.76133 25.6268 9.164C25.6268 8.576 25.4914 8.04867 25.2208 7.582C24.9594 7.106 24.5954 6.73267 24.1288 6.462C23.6714 6.182 23.1488 6.042 22.5608 6.042C21.9821 6.042 21.4594 6.182 20.9928 6.462C20.5261 6.73267 20.1574 7.106 19.8868 7.582C19.6161 8.04867 19.4808 8.58067 19.4808 9.178C19.4808 9.766 19.6161 10.298 19.8868 10.774C20.1574 11.2407 20.5261 11.614 20.9928 11.894C21.4594 12.1647 21.9821 12.3 22.5608 12.3ZM30.1027 13C29.7481 13 29.4307 12.902 29.1507 12.706C28.8801 12.51 28.6654 12.2393 28.5067 11.894C28.3574 11.5487 28.2827 11.1473 28.2827 10.69V2.486C28.2827 2.35533 28.3201 2.25267 28.3947 2.178C28.4787 2.10333 28.5814 2.066 28.7027 2.066C28.8334 2.066 28.9361 2.10333 29.0107 2.178C29.0854 2.25267 29.1227 2.35533 29.1227 2.486V10.69C29.1227 11.1193 29.2114 11.474 29.3887 11.754C29.5754 12.0247 29.8134 12.16 30.1027 12.16H30.4527C30.5554 12.16 30.6394 12.1973 30.7047 12.272C30.7701 12.3467 30.8027 12.4493 30.8027 12.58C30.8027 12.7013 30.7654 12.804 30.6907 12.888C30.6161 12.9627 30.5134 13 30.3827 13H30.1027ZM35.3003 13.07C34.563 13.07 33.905 12.9067 33.3263 12.58C32.757 12.244 32.309 11.782 31.9823 11.194C31.6557 10.606 31.4923 9.934 31.4923 9.178C31.4923 8.41267 31.6463 7.74067 31.9543 7.162C32.2623 6.574 32.687 6.112 33.2283 5.776C33.7697 5.44 34.3903 5.272 35.0903 5.272C35.781 5.272 36.3923 5.43533 36.9243 5.762C37.4563 6.07933 37.8717 6.52267 38.1703 7.092C38.469 7.652 38.6183 8.30067 38.6183 9.038C38.6183 9.15933 38.581 9.25733 38.5063 9.332C38.4317 9.39733 38.3337 9.43 38.2123 9.43H32.0523V8.702H38.4363L37.8203 9.164C37.839 8.55733 37.7363 8.02067 37.5123 7.554C37.2883 7.08733 36.9663 6.72333 36.5463 6.462C36.1357 6.19133 35.6503 6.056 35.0903 6.056C34.5583 6.056 34.0823 6.19133 33.6623 6.462C33.2517 6.72333 32.925 7.08733 32.6823 7.554C32.449 8.02067 32.3323 8.562 32.3323 9.178C32.3323 9.78467 32.4583 10.3213 32.7103 10.788C32.9623 11.2547 33.3123 11.6233 33.7603 11.894C34.2083 12.1553 34.7217 12.286 35.3003 12.286C35.6643 12.286 36.0283 12.2253 36.3923 12.104C36.7657 11.9733 37.0597 11.8053 37.2743 11.6C37.349 11.5253 37.4377 11.488 37.5403 11.488C37.6523 11.4787 37.7457 11.5067 37.8203 11.572C37.923 11.656 37.9743 11.7493 37.9743 11.852C37.9837 11.9547 37.9417 12.048 37.8483 12.132C37.5497 12.4027 37.1577 12.6267 36.6723 12.804C36.1963 12.9813 35.739 13.07 35.3003 13.07ZM40.7236 8.324C40.7796 7.72667 40.9429 7.19933 41.2136 6.742C41.4843 6.27533 41.8343 5.91133 42.2636 5.65C42.6929 5.38867 43.1689 5.258 43.6916 5.258C44.0463 5.258 44.3216 5.3 44.5176 5.384C44.7136 5.468 44.7883 5.61733 44.7416 5.832C44.7136 5.972 44.6483 6.056 44.5456 6.084C44.4429 6.112 44.3169 6.11667 44.1676 6.098C44.0276 6.07 43.8689 6.056 43.6916 6.056C43.2249 6.056 42.8096 6.154 42.4456 6.35C42.0816 6.546 41.7969 6.81667 41.5916 7.162C41.3863 7.498 41.2836 7.88533 41.2836 8.324H40.7236ZM40.8636 13C40.7423 13 40.6396 12.9627 40.5556 12.888C40.4809 12.804 40.4436 12.7013 40.4436 12.58V5.762C40.4436 5.63133 40.4809 5.52867 40.5556 5.454C40.6396 5.37933 40.7423 5.342 40.8636 5.342C40.9943 5.342 41.0969 5.37933 41.1716 5.454C41.2463 5.52867 41.2836 5.63133 41.2836 5.762V12.58C41.2836 12.7013 41.2463 12.804 41.1716 12.888C41.0969 12.9627 40.9943 13 40.8636 13Z" fill="#758494"/>
<path d="M140.968 13C140.875 13 140.791 12.9767 140.716 12.93C140.651 12.8833 140.604 12.818 140.576 12.734L138.308 5.944C138.271 5.73867 138.28 5.58933 138.336 5.496C138.392 5.39333 138.49 5.342 138.63 5.342C138.705 5.342 138.779 5.36533 138.854 5.412C138.929 5.44933 138.985 5.51 139.022 5.594L141.094 11.838H140.912L142.816 5.678C142.844 5.57533 142.895 5.496 142.97 5.44C143.045 5.37467 143.133 5.342 143.236 5.342C143.339 5.342 143.423 5.37467 143.488 5.44C143.563 5.496 143.619 5.57533 143.656 5.678L145.616 11.838H145.364L147.436 5.594C147.511 5.426 147.641 5.342 147.828 5.342C147.996 5.342 148.108 5.40733 148.164 5.538C148.229 5.66867 148.229 5.804 148.164 5.944L145.91 12.734C145.882 12.818 145.831 12.8833 145.756 12.93C145.691 12.9767 145.607 13 145.504 13C145.411 13 145.327 12.9767 145.252 12.93C145.177 12.8833 145.131 12.818 145.112 12.734L143.11 6.518H143.292L141.36 12.734C141.323 12.8273 141.267 12.8973 141.192 12.944C141.127 12.9813 141.052 13 140.968 13ZM152.973 13.084C152.226 13.084 151.554 12.916 150.957 12.58C150.369 12.2347 149.902 11.768 149.557 11.18C149.221 10.5827 149.053 9.91533 149.053 9.178C149.053 8.43133 149.221 7.764 149.557 7.176C149.902 6.57867 150.369 6.112 150.957 5.776C151.554 5.43067 152.226 5.258 152.973 5.258C153.72 5.258 154.387 5.43067 154.975 5.776C155.563 6.112 156.025 6.57867 156.361 7.176C156.706 7.764 156.879 8.43133 156.879 9.178L156.529 9.738C156.529 10.3727 156.37 10.942 156.053 11.446C155.745 11.95 155.325 12.3513 154.793 12.65C154.261 12.9393 153.654 13.084 152.973 13.084ZM152.973 12.3C153.561 12.3 154.084 12.1647 154.541 11.894C155.008 11.614 155.372 11.2407 155.633 10.774C155.904 10.298 156.039 9.766 156.039 9.178C156.039 8.58067 155.904 8.04867 155.633 7.582C155.372 7.106 155.008 6.73267 154.541 6.462C154.084 6.182 153.561 6.042 152.973 6.042C152.394 6.042 151.872 6.182 151.405 6.462C150.938 6.73267 150.57 7.106 150.299 7.582C150.028 8.04867 149.893 8.58067 149.893 9.178C149.893 9.766 150.028 10.298 150.299 10.774C150.57 11.2407 150.938 11.614 151.405 11.894C151.872 12.1647 152.394 12.3 152.973 12.3ZM156.459 13C156.338 13 156.235 12.9627 156.151 12.888C156.076 12.804 156.039 12.7013 156.039 12.58V10.018L156.305 9.178H156.879V12.58C156.879 12.7013 156.842 12.804 156.767 12.888C156.692 12.9627 156.59 13 156.459 13ZM159.255 8.324C159.311 7.72667 159.474 7.19933 159.745 6.742C160.016 6.27533 160.366 5.91133 160.795 5.65C161.224 5.38867 161.7 5.258 162.223 5.258C162.578 5.258 162.853 5.3 163.049 5.384C163.245 5.468 163.32 5.61733 163.273 5.832C163.245 5.972 163.18 6.056 163.077 6.084C162.974 6.112 162.848 6.11667 162.699 6.098C162.559 6.07 162.4 6.056 162.223 6.056C161.756 6.056 161.341 6.154 160.977 6.35C160.613 6.546 160.328 6.81667 160.123 7.162C159.918 7.498 159.815 7.88533 159.815 8.324H159.255ZM159.395 13C159.274 13 159.171 12.9627 159.087 12.888C159.012 12.804 158.975 12.7013 158.975 12.58V5.762C158.975 5.63133 159.012 5.52867 159.087 5.454C159.171 5.37933 159.274 5.342 159.395 5.342C159.526 5.342 159.628 5.37933 159.703 5.454C159.778 5.52867 159.815 5.63133 159.815 5.762V12.58C159.815 12.7013 159.778 12.804 159.703 12.888C159.628 12.9627 159.526 13 159.395 13ZM175.656 13C175.534 13 175.432 12.9627 175.348 12.888C175.273 12.804 175.236 12.7013 175.236 12.58V8.534C175.236 7.81533 175.044 7.22733 174.662 6.77C174.288 6.31267 173.798 6.084 173.192 6.084C172.548 6.084 172.02 6.29867 171.61 6.728C171.208 7.148 171.017 7.71733 171.036 8.436H170.196C170.214 7.792 170.354 7.232 170.616 6.756C170.877 6.28 171.232 5.91133 171.68 5.65C172.128 5.37933 172.632 5.244 173.192 5.244C173.761 5.244 174.26 5.384 174.69 5.664C175.119 5.944 175.455 6.33133 175.698 6.826C175.95 7.32067 176.076 7.89 176.076 8.534V12.58C176.076 12.7013 176.038 12.804 175.964 12.888C175.889 12.9627 175.786 13 175.656 13ZM165.534 13C165.412 13 165.31 12.9627 165.226 12.888C165.151 12.804 165.114 12.7013 165.114 12.58V5.762C165.114 5.63133 165.151 5.52867 165.226 5.454C165.31 5.37933 165.412 5.342 165.534 5.342C165.664 5.342 165.767 5.37933 165.842 5.454C165.916 5.52867 165.954 5.63133 165.954 5.762V12.58C165.954 12.7013 165.916 12.804 165.842 12.888C165.767 12.9627 165.664 13 165.534 13ZM170.616 13C170.494 13 170.392 12.9627 170.308 12.888C170.233 12.804 170.196 12.7013 170.196 12.58V8.534C170.196 7.81533 170.004 7.22733 169.622 6.77C169.248 6.31267 168.758 6.084 168.152 6.084C167.508 6.084 166.98 6.28933 166.57 6.7C166.159 7.11067 165.954 7.64267 165.954 8.296L165.254 8.296C165.282 7.69867 165.422 7.17133 165.674 6.714C165.935 6.25667 166.28 5.89733 166.71 5.636C167.139 5.37467 167.62 5.244 168.152 5.244C168.721 5.244 169.22 5.384 169.65 5.664C170.079 5.944 170.415 6.33133 170.658 6.826C170.91 7.32067 171.036 7.89 171.036 8.534V12.58C171.036 12.7013 170.998 12.804 170.924 12.888C170.849 12.9627 170.746 13 170.616 13ZM181.845 13.07C181.108 13.07 180.45 12.9067 179.871 12.58C179.302 12.244 178.854 11.782 178.527 11.194C178.201 10.606 178.037 9.934 178.037 9.178C178.037 8.41267 178.191 7.74067 178.499 7.162C178.807 6.574 179.232 6.112 179.773 5.776C180.315 5.44 180.935 5.272 181.635 5.272C182.326 5.272 182.937 5.43533 183.469 5.762C184.001 6.07933 184.417 6.52267 184.715 7.092C185.014 7.652 185.163 8.30067 185.163 9.038C185.163 9.15933 185.126 9.25733 185.051 9.332C184.977 9.39733 184.879 9.43 184.757 9.43H178.597V8.702H184.981L184.365 9.164C184.384 8.55733 184.281 8.02067 184.057 7.554C183.833 7.08733 183.511 6.72333 183.091 6.462C182.681 6.19133 182.195 6.056 181.635 6.056C181.103 6.056 180.627 6.19133 180.207 6.462C179.797 6.72333 179.47 7.08733 179.227 7.554C178.994 8.02067 178.877 8.562 178.877 9.178C178.877 9.78467 179.003 10.3213 179.255 10.788C179.507 11.2547 179.857 11.6233 180.305 11.894C180.753 12.1553 181.267 12.286 181.845 12.286C182.209 12.286 182.573 12.2253 182.937 12.104C183.311 11.9733 183.605 11.8053 183.819 11.6C183.894 11.5253 183.983 11.488 184.085 11.488C184.197 11.4787 184.291 11.5067 184.365 11.572C184.468 11.656 184.519 11.7493 184.519 11.852C184.529 11.9547 184.487 12.048 184.393 12.132C184.095 12.4027 183.703 12.6267 183.217 12.804C182.741 12.9813 182.284 13.07 181.845 13.07ZM187.269 8.324C187.325 7.72667 187.488 7.19933 187.759 6.742C188.029 6.27533 188.379 5.91133 188.809 5.65C189.238 5.38867 189.714 5.258 190.237 5.258C190.591 5.258 190.867 5.3 191.063 5.384C191.259 5.468 191.333 5.61733 191.287 5.832C191.259 5.972 191.193 6.056 191.091 6.084C190.988 6.112 190.862 6.11667 190.713 6.098C190.573 6.07 190.414 6.056 190.237 6.056C189.77 6.056 189.355 6.154 188.991 6.35C188.627 6.546 188.342 6.81667 188.137 7.162C187.931 7.498 187.829 7.88533 187.829 8.324L187.269 8.324ZM187.409 13C187.287 13 187.185 12.9627 187.101 12.888C187.026 12.804 186.989 12.7013 186.989 12.58V5.762C186.989 5.63133 187.026 5.52867 187.101 5.454C187.185 5.37933 187.287 5.342 187.409 5.342C187.539 5.342 187.642 5.37933 187.717 5.454C187.791 5.52867 187.829 5.63133 187.829 5.762V12.58C187.829 12.7013 187.791 12.804 187.717 12.888C187.642 12.9627 187.539 13 187.409 13Z" fill="#758494"/>
</svg>
