<svg width="212" height="27" viewBox="0 0 212 27" fill="none" xmlns="http://www.w3.org/2000/svg">
<rect x="95.5822" y="16" width="10.2215" height="10.2215" fill="#F26648"/>
<rect x="105.78" y="16" width="10.2215" height="10.2215" fill="#A24430"/>
<rect x="85.3843" y="16" width="10.2215" height="10.2215" fill="#F59D4C"/>
<rect x="75.1868" y="16" width="10.2215" height="10.2215" fill="#F5D633"/>
<rect x="44.5933" y="16" width="10.2215" height="10.2215" fill="#5571AE"/>
<rect x="54.7913" y="16" width="10.2215" height="10.2215" fill="#B3A17E"/>
<rect x="64.9889" y="16" width="10.2215" height="10.2215" fill="#E9DEB8"/>
<rect x="34.3956" y="16" width="10.2215" height="10.2215" fill="#1C4893"/>
<rect x="24.1975" y="16" width="10.2215" height="10.2215" fill="#002768"/>
<rect x="14" y="16" width="10.2215" height="10.2215" fill="#011840"/>
<circle cx="193" cy="21" r="5" transform="rotate(90 193 21)" fill="#758494"/>
<circle cx="161" cy="21" r="4.5" transform="rotate(90 161 21)" fill="#758494" fill-opacity="0.05" stroke="#758494"/>
<circle cx="177" cy="21" r="4.5" transform="rotate(90 177 21)" fill="#758494" fill-opacity="0.5" stroke="#758494"/>
<path d="M146.412 13.12C145.764 13.12 145.156 12.996 144.588 12.748C144.028 12.5 143.532 12.156 143.1 11.716C142.676 11.268 142.344 10.756 142.104 10.18C141.864 9.596 141.744 8.972 141.744 8.308C141.744 7.652 141.86 7.036 142.092 6.46C142.332 5.876 142.664 5.364 143.088 4.924C143.52 4.484 144.016 4.14 144.576 3.892C145.144 3.636 145.756 3.508 146.412 3.508C146.988 3.508 147.512 3.592 147.984 3.76C148.456 3.928 148.912 4.196 149.352 4.564C149.424 4.62 149.464 4.688 149.472 4.768C149.488 4.84 149.48 4.912 149.448 4.984C149.416 5.048 149.368 5.096 149.304 5.128C149.288 5.192 149.248 5.24 149.184 5.272C149.12 5.304 149.044 5.316 148.956 5.308C148.876 5.3 148.796 5.264 148.716 5.2C148.404 4.928 148.064 4.728 147.696 4.6C147.328 4.464 146.9 4.396 146.412 4.396C145.892 4.396 145.404 4.5 144.948 4.708C144.5 4.916 144.104 5.2 143.76 5.56C143.416 5.92 143.144 6.336 142.944 6.808C142.752 7.28 142.656 7.78 142.656 8.308C142.656 8.852 142.752 9.36 142.944 9.832C143.144 10.304 143.416 10.72 143.76 11.08C144.104 11.44 144.5 11.724 144.948 11.932C145.404 12.132 145.892 12.232 146.412 12.232C146.852 12.232 147.268 12.16 147.66 12.016C148.052 11.872 148.424 11.664 148.776 11.392C148.872 11.312 148.972 11.28 149.076 11.296C149.188 11.312 149.284 11.36 149.364 11.44C149.444 11.52 149.484 11.624 149.484 11.752C149.484 11.816 149.472 11.876 149.448 11.932C149.432 11.98 149.4 12.032 149.352 12.088C148.944 12.464 148.488 12.732 147.984 12.892C147.48 13.044 146.956 13.12 146.412 13.12ZM153.798 13.06C153.158 13.06 152.586 12.916 152.082 12.628C151.578 12.34 151.182 11.944 150.894 11.44C150.606 10.936 150.462 10.364 150.462 9.724C150.462 9.076 150.606 8.5 150.894 7.996C151.182 7.492 151.578 7.096 152.082 6.808C152.586 6.52 153.158 6.376 153.798 6.376C154.438 6.376 155.006 6.52 155.502 6.808C156.006 7.096 156.402 7.492 156.69 7.996C156.978 8.5 157.126 9.076 157.134 9.724C157.134 10.364 156.986 10.936 156.69 11.44C156.402 11.944 156.006 12.34 155.502 12.628C155.006 12.916 154.438 13.06 153.798 13.06ZM153.798 12.22C154.262 12.22 154.678 12.112 155.046 11.896C155.414 11.68 155.702 11.384 155.91 11.008C156.118 10.632 156.222 10.204 156.222 9.724C156.222 9.244 156.118 8.816 155.91 8.44C155.702 8.056 155.414 7.756 155.046 7.54C154.678 7.324 154.262 7.216 153.798 7.216C153.334 7.216 152.918 7.324 152.55 7.54C152.182 7.756 151.89 8.056 151.674 8.44C151.466 8.816 151.362 9.244 151.362 9.724C151.362 10.204 151.466 10.632 151.674 11.008C151.89 11.384 152.182 11.68 152.55 11.896C152.918 12.112 153.334 12.22 153.798 12.22ZM164.56 13C164.424 13 164.312 12.956 164.224 12.868C164.136 12.78 164.092 12.672 164.092 12.544L164.092 9.424C164.092 8.928 163.996 8.52 163.804 8.2C163.62 7.88 163.364 7.64 163.036 7.48C162.716 7.32 162.352 7.24 161.944 7.24C161.552 7.24 161.196 7.316 160.876 7.468C160.564 7.62 160.316 7.828 160.132 8.092C159.948 8.356 159.856 8.656 159.856 8.992H159.196C159.212 8.488 159.348 8.04 159.604 7.648C159.86 7.248 160.2 6.936 160.624 6.712C161.048 6.48 161.52 6.364 162.04 6.364C162.608 6.364 163.116 6.484 163.564 6.724C164.012 6.956 164.364 7.3 164.62 7.756C164.884 8.212 165.016 8.768 165.016 9.424L165.016 12.544C165.016 12.672 164.972 12.78 164.884 12.868C164.796 12.956 164.688 13 164.56 13ZM159.4 13C159.256 13 159.14 12.96 159.052 12.88C158.972 12.792 158.932 12.68 158.932 12.544L158.932 6.904C158.932 6.76 158.972 6.648 159.052 6.568C159.14 6.48 159.256 6.436 159.4 6.436C159.536 6.436 159.644 6.48 159.724 6.568C159.812 6.648 159.856 6.76 159.856 6.904L159.856 12.544C159.856 12.68 159.812 12.792 159.724 12.88C159.644 12.96 159.536 13 159.4 13ZM167.881 13C167.753 13 167.645 12.956 167.557 12.868C167.469 12.78 167.425 12.668 167.425 12.532L167.425 6.376C167.425 5.84 167.517 5.364 167.701 4.948C167.893 4.532 168.197 4.204 168.613 3.964C169.029 3.716 169.585 3.592 170.281 3.592C170.601 3.592 170.905 3.628 171.193 3.7C171.481 3.772 171.713 3.876 171.889 4.012C172.073 4.14 172.165 4.3 172.165 4.492C172.165 4.836 171.969 5.008 171.577 5.008C171.441 5.008 171.317 4.976 171.205 4.912C171.093 4.84 170.977 4.76 170.857 4.672C170.745 4.576 170.621 4.496 170.485 4.432C170.349 4.36 170.185 4.324 169.993 4.324C169.673 4.324 169.389 4.388 169.141 4.516C168.893 4.644 168.697 4.86 168.553 5.164C168.417 5.46 168.349 5.864 168.349 6.376L168.349 12.532C168.349 12.668 168.305 12.78 168.217 12.868C168.129 12.956 168.017 13 167.881 13ZM166.657 7.48C166.529 7.48 166.425 7.444 166.345 7.372C166.273 7.292 166.237 7.196 166.237 7.084C166.237 6.964 166.273 6.868 166.345 6.796C166.425 6.716 166.529 6.676 166.657 6.676L169.801 6.676C169.921 6.676 170.021 6.716 170.101 6.796C170.181 6.868 170.221 6.964 170.221 7.084C170.221 7.196 170.181 7.292 170.101 7.372C170.021 7.444 169.921 7.48 169.801 7.48L166.657 7.48ZM171.601 13C171.457 13 171.341 12.96 171.253 12.88C171.173 12.792 171.133 12.676 171.133 12.532L171.133 6.904C171.133 6.76 171.173 6.648 171.253 6.568C171.341 6.48 171.457 6.436 171.601 6.436C171.737 6.436 171.845 6.48 171.925 6.568C172.013 6.648 172.057 6.76 172.057 6.904L172.057 12.532C172.057 12.676 172.013 12.792 171.925 12.88C171.845 12.96 171.737 13 171.601 13ZM177.318 13.06C176.686 13.06 176.118 12.916 175.614 12.628C175.11 12.332 174.71 11.932 174.414 11.428C174.126 10.924 173.982 10.352 173.982 9.712C173.982 9.08 174.122 8.512 174.402 8.008C174.69 7.504 175.078 7.108 175.566 6.82C176.054 6.524 176.606 6.376 177.222 6.376C177.758 6.376 178.242 6.492 178.674 6.724C179.106 6.948 179.454 7.248 179.718 7.624V4.096C179.718 3.952 179.762 3.84 179.85 3.76C179.938 3.672 180.05 3.628 180.186 3.628C180.322 3.628 180.434 3.672 180.522 3.76C180.61 3.84 180.654 3.952 180.654 4.096V9.76C180.638 10.384 180.482 10.948 180.186 11.452C179.898 11.948 179.502 12.34 178.998 12.628C178.502 12.916 177.942 13.06 177.318 13.06ZM177.318 12.22C177.782 12.22 178.194 12.112 178.554 11.896C178.922 11.672 179.21 11.372 179.418 10.996C179.634 10.62 179.742 10.192 179.742 9.712C179.742 9.24 179.634 8.816 179.418 8.44C179.21 8.056 178.922 7.756 178.554 7.54C178.194 7.324 177.782 7.216 177.318 7.216C176.862 7.216 176.45 7.324 176.082 7.54C175.714 7.756 175.422 8.056 175.206 8.44C174.99 8.816 174.882 9.24 174.882 9.712C174.882 10.192 174.99 10.62 175.206 10.996C175.422 11.372 175.714 11.672 176.082 11.896C176.45 12.112 176.862 12.22 177.318 12.22ZM185.79 13.06C185.142 13.06 184.566 12.92 184.062 12.64C183.566 12.352 183.174 11.956 182.886 11.452C182.606 10.948 182.466 10.372 182.466 9.724C182.466 9.068 182.598 8.492 182.862 7.996C183.134 7.492 183.506 7.096 183.978 6.808C184.45 6.52 184.994 6.376 185.61 6.376C186.218 6.376 186.746 6.516 187.194 6.796C187.65 7.068 188.002 7.448 188.25 7.936C188.498 8.424 188.622 8.98 188.622 9.604C188.622 9.732 188.582 9.836 188.502 9.916C188.422 9.988 188.318 10.024 188.19 10.024L183.09 10.024V9.256L188.286 9.256L187.77 9.628C187.778 9.164 187.694 8.748 187.518 8.38C187.342 8.012 187.09 7.724 186.762 7.516C186.442 7.308 186.058 7.204 185.61 7.204C185.154 7.204 184.754 7.312 184.41 7.528C184.066 7.744 183.798 8.044 183.606 8.428C183.422 8.804 183.33 9.236 183.33 9.724C183.33 10.212 183.434 10.644 183.642 11.02C183.858 11.396 184.15 11.692 184.518 11.908C184.886 12.124 185.31 12.232 185.79 12.232C186.078 12.232 186.366 12.184 186.654 12.088C186.95 11.984 187.186 11.856 187.362 11.704C187.45 11.632 187.55 11.596 187.662 11.596C187.774 11.588 187.87 11.616 187.95 11.68C188.054 11.776 188.106 11.88 188.106 11.992C188.114 12.104 188.07 12.2 187.974 12.28C187.71 12.504 187.374 12.692 186.966 12.844C186.558 12.988 186.166 13.06 185.79 13.06ZM195.813 13C195.677 13 195.565 12.956 195.477 12.868C195.389 12.78 195.345 12.672 195.345 12.544V9.424C195.345 8.928 195.249 8.52 195.057 8.2C194.873 7.88 194.617 7.64 194.289 7.48C193.969 7.32 193.605 7.24 193.197 7.24C192.805 7.24 192.449 7.316 192.129 7.468C191.817 7.62 191.569 7.828 191.385 8.092C191.201 8.356 191.109 8.656 191.109 8.992H190.449C190.465 8.488 190.601 8.04 190.857 7.648C191.113 7.248 191.453 6.936 191.877 6.712C192.301 6.48 192.773 6.364 193.293 6.364C193.861 6.364 194.369 6.484 194.817 6.724C195.265 6.956 195.617 7.3 195.873 7.756C196.137 8.212 196.269 8.768 196.269 9.424V12.544C196.269 12.672 196.225 12.78 196.137 12.868C196.049 12.956 195.941 13 195.813 13ZM190.653 13C190.509 13 190.393 12.96 190.305 12.88C190.225 12.792 190.185 12.68 190.185 12.544V6.904C190.185 6.76 190.225 6.648 190.305 6.568C190.393 6.48 190.509 6.436 190.653 6.436C190.789 6.436 190.897 6.48 190.977 6.568C191.065 6.648 191.109 6.76 191.109 6.904V12.544C191.109 12.68 191.065 12.792 190.977 12.88C190.897 12.96 190.789 13 190.653 13ZM201.235 13.06C200.603 13.06 200.039 12.916 199.543 12.628C199.055 12.332 198.667 11.932 198.379 11.428C198.099 10.924 197.959 10.356 197.959 9.724C197.959 9.084 198.095 8.512 198.367 8.008C198.639 7.504 199.011 7.108 199.483 6.82C199.955 6.524 200.499 6.376 201.115 6.376C201.603 6.376 202.051 6.472 202.459 6.664C202.875 6.856 203.239 7.144 203.551 7.528C203.639 7.624 203.671 7.728 203.647 7.84C203.623 7.944 203.555 8.036 203.443 8.116C203.355 8.18 203.255 8.204 203.143 8.188C203.039 8.164 202.947 8.104 202.867 8.008C202.403 7.48 201.819 7.216 201.115 7.216C200.667 7.216 200.271 7.324 199.927 7.54C199.591 7.756 199.327 8.052 199.135 8.428C198.951 8.804 198.859 9.236 198.859 9.724C198.859 10.204 198.959 10.632 199.159 11.008C199.359 11.384 199.639 11.68 199.999 11.896C200.359 12.112 200.771 12.22 201.235 12.22C201.547 12.22 201.831 12.18 202.087 12.1C202.351 12.012 202.583 11.88 202.783 11.704C202.879 11.624 202.979 11.58 203.083 11.572C203.187 11.564 203.283 11.596 203.371 11.668C203.467 11.756 203.519 11.856 203.527 11.968C203.543 12.08 203.507 12.176 203.419 12.256C202.835 12.792 202.107 13.06 201.235 13.06ZM208.419 13.06C207.771 13.06 207.195 12.92 206.691 12.64C206.195 12.352 205.803 11.956 205.515 11.452C205.235 10.948 205.095 10.372 205.095 9.724C205.095 9.068 205.227 8.492 205.491 7.996C205.763 7.492 206.135 7.096 206.607 6.808C207.079 6.52 207.623 6.376 208.239 6.376C208.847 6.376 209.375 6.516 209.823 6.796C210.279 7.068 210.631 7.448 210.879 7.936C211.127 8.424 211.251 8.98 211.251 9.604C211.251 9.732 211.211 9.836 211.131 9.916C211.051 9.988 210.947 10.024 210.819 10.024L205.719 10.024V9.256L210.915 9.256L210.399 9.628C210.407 9.164 210.323 8.748 210.147 8.38C209.971 8.012 209.719 7.724 209.391 7.516C209.071 7.308 208.687 7.204 208.239 7.204C207.783 7.204 207.383 7.312 207.039 7.528C206.695 7.744 206.427 8.044 206.235 8.428C206.051 8.804 205.959 9.236 205.959 9.724C205.959 10.212 206.063 10.644 206.271 11.02C206.487 11.396 206.779 11.692 207.147 11.908C207.515 12.124 207.939 12.232 208.419 12.232C208.707 12.232 208.995 12.184 209.283 12.088C209.579 11.984 209.815 11.856 209.991 11.704C210.079 11.632 210.179 11.596 210.291 11.596C210.403 11.588 210.499 11.616 210.579 11.68C210.683 11.776 210.735 11.88 210.735 11.992C210.743 12.104 210.699 12.2 210.603 12.28C210.339 12.504 210.003 12.692 209.595 12.844C209.187 12.988 208.795 13.06 208.419 13.06Z" fill="#758494"/>
<path d="M4.648 13.084C3.92 13.084 3.26667 12.9113 2.688 12.566C2.11867 12.2207 1.666 11.754 1.33 11.166C1.00333 10.578 0.84 9.91533 0.84 9.178C0.84 8.43133 0.994 7.764 1.302 7.176C1.61 6.588 2.03467 6.126 2.576 5.79C3.11733 5.44467 3.738 5.272 4.438 5.272C5.03533 5.272 5.58133 5.38867 6.076 5.622C6.57067 5.846 7 6.19133 7.364 6.658C7.43867 6.75133 7.46667 6.84933 7.448 6.952C7.42933 7.05467 7.36867 7.13867 7.266 7.204C7.182 7.26933 7.08867 7.29733 6.986 7.288C6.88333 7.26933 6.79467 7.21333 6.72 7.12C6.12267 6.41067 5.362 6.056 4.438 6.056C3.88733 6.056 3.402 6.19133 2.982 6.462C2.57133 6.73267 2.24933 7.10133 2.016 7.568C1.792 8.03467 1.68 8.57133 1.68 9.178C1.68 9.766 1.806 10.298 2.058 10.774C2.31 11.2407 2.65533 11.614 3.094 11.894C3.542 12.1647 4.06 12.3 4.648 12.3C5.03067 12.3 5.39 12.244 5.726 12.132C6.07133 12.02 6.37 11.8473 6.622 11.614C6.706 11.5393 6.79933 11.4973 6.902 11.488C7.00467 11.4787 7.09333 11.5113 7.168 11.586C7.26133 11.67 7.308 11.768 7.308 11.88C7.31733 11.9827 7.28 12.0713 7.196 12.146C6.51467 12.7713 5.66533 13.084 4.648 13.084ZM13.0588 13.084C12.3122 13.084 11.6402 12.916 11.0428 12.58C10.4548 12.2347 9.98816 11.768 9.64283 11.18C9.30683 10.5827 9.13883 9.91533 9.13883 9.178C9.13883 8.43133 9.30683 7.764 9.64283 7.176C9.98816 6.57867 10.4548 6.112 11.0428 5.776C11.6402 5.43067 12.3122 5.258 13.0588 5.258C13.8055 5.258 14.4728 5.43067 15.0608 5.776C15.6488 6.112 16.1108 6.57867 16.4468 7.176C16.7922 7.764 16.9648 8.43133 16.9648 9.178C16.9648 9.91533 16.7922 10.5827 16.4468 11.18C16.1108 11.768 15.6488 12.2347 15.0608 12.58C14.4728 12.916 13.8055 13.084 13.0588 13.084ZM13.0588 12.3C13.6468 12.3 14.1695 12.1647 14.6268 11.894C15.0935 11.614 15.4575 11.2407 15.7188 10.774C15.9895 10.298 16.1248 9.76133 16.1248 9.164C16.1248 8.576 15.9895 8.04867 15.7188 7.582C15.4575 7.106 15.0935 6.73267 14.6268 6.462C14.1695 6.182 13.6468 6.042 13.0588 6.042C12.4802 6.042 11.9575 6.182 11.4908 6.462C11.0242 6.73267 10.6555 7.106 10.3848 7.582C10.1142 8.04867 9.97883 8.58067 9.97883 9.178C9.97883 9.766 10.1142 10.298 10.3848 10.774C10.6555 11.2407 11.0242 11.614 11.4908 11.894C11.9575 12.1647 12.4802 12.3 13.0588 12.3ZM22.5608 13.084C21.8141 13.084 21.1421 12.916 20.5448 12.58C19.9568 12.2347 19.4901 11.768 19.1448 11.18C18.8088 10.5827 18.6408 9.91533 18.6408 9.178C18.6408 8.43133 18.8088 7.764 19.1448 7.176C19.4901 6.57867 19.9568 6.112 20.5448 5.776C21.1421 5.43067 21.8141 5.258 22.5608 5.258C23.3074 5.258 23.9748 5.43067 24.5628 5.776C25.1508 6.112 25.6128 6.57867 25.9488 7.176C26.2941 7.764 26.4668 8.43133 26.4668 9.178C26.4668 9.91533 26.2941 10.5827 25.9488 11.18C25.6128 11.768 25.1508 12.2347 24.5628 12.58C23.9748 12.916 23.3074 13.084 22.5608 13.084ZM22.5608 12.3C23.1488 12.3 23.6714 12.1647 24.1288 11.894C24.5954 11.614 24.9594 11.2407 25.2208 10.774C25.4914 10.298 25.6268 9.76133 25.6268 9.164C25.6268 8.576 25.4914 8.04867 25.2208 7.582C24.9594 7.106 24.5954 6.73267 24.1288 6.462C23.6714 6.182 23.1488 6.042 22.5608 6.042C21.9821 6.042 21.4594 6.182 20.9928 6.462C20.5261 6.73267 20.1574 7.106 19.8868 7.582C19.6161 8.04867 19.4808 8.58067 19.4808 9.178C19.4808 9.766 19.6161 10.298 19.8868 10.774C20.1574 11.2407 20.5261 11.614 20.9928 11.894C21.4594 12.1647 21.9821 12.3 22.5608 12.3ZM30.1027 13C29.7481 13 29.4307 12.902 29.1507 12.706C28.8801 12.51 28.6654 12.2393 28.5067 11.894C28.3574 11.5487 28.2827 11.1473 28.2827 10.69V2.486C28.2827 2.35533 28.3201 2.25267 28.3947 2.178C28.4787 2.10333 28.5814 2.066 28.7027 2.066C28.8334 2.066 28.9361 2.10333 29.0107 2.178C29.0854 2.25267 29.1227 2.35533 29.1227 2.486V10.69C29.1227 11.1193 29.2114 11.474 29.3887 11.754C29.5754 12.0247 29.8134 12.16 30.1027 12.16H30.4527C30.5554 12.16 30.6394 12.1973 30.7047 12.272C30.7701 12.3467 30.8027 12.4493 30.8027 12.58C30.8027 12.7013 30.7654 12.804 30.6907 12.888C30.6161 12.9627 30.5134 13 30.3827 13H30.1027ZM35.3003 13.07C34.563 13.07 33.905 12.9067 33.3263 12.58C32.757 12.244 32.309 11.782 31.9823 11.194C31.6557 10.606 31.4923 9.934 31.4923 9.178C31.4923 8.41267 31.6463 7.74067 31.9543 7.162C32.2623 6.574 32.687 6.112 33.2283 5.776C33.7697 5.44 34.3903 5.272 35.0903 5.272C35.781 5.272 36.3923 5.43533 36.9243 5.762C37.4563 6.07933 37.8717 6.52267 38.1703 7.092C38.469 7.652 38.6183 8.30067 38.6183 9.038C38.6183 9.15933 38.581 9.25733 38.5063 9.332C38.4317 9.39733 38.3337 9.43 38.2123 9.43H32.0523V8.702H38.4363L37.8203 9.164C37.839 8.55733 37.7363 8.02067 37.5123 7.554C37.2883 7.08733 36.9663 6.72333 36.5463 6.462C36.1357 6.19133 35.6503 6.056 35.0903 6.056C34.5583 6.056 34.0823 6.19133 33.6623 6.462C33.2517 6.72333 32.925 7.08733 32.6823 7.554C32.449 8.02067 32.3323 8.562 32.3323 9.178C32.3323 9.78467 32.4583 10.3213 32.7103 10.788C32.9623 11.2547 33.3123 11.6233 33.7603 11.894C34.2083 12.1553 34.7217 12.286 35.3003 12.286C35.6643 12.286 36.0283 12.2253 36.3923 12.104C36.7657 11.9733 37.0597 11.8053 37.2743 11.6C37.349 11.5253 37.4377 11.488 37.5403 11.488C37.6523 11.4787 37.7457 11.5067 37.8203 11.572C37.923 11.656 37.9743 11.7493 37.9743 11.852C37.9837 11.9547 37.9417 12.048 37.8483 12.132C37.5497 12.4027 37.1577 12.6267 36.6723 12.804C36.1963 12.9813 35.739 13.07 35.3003 13.07ZM40.7236 8.324C40.7796 7.72667 40.9429 7.19933 41.2136 6.742C41.4843 6.27533 41.8343 5.91133 42.2636 5.65C42.6929 5.38867 43.1689 5.258 43.6916 5.258C44.0463 5.258 44.3216 5.3 44.5176 5.384C44.7136 5.468 44.7883 5.61733 44.7416 5.832C44.7136 5.972 44.6483 6.056 44.5456 6.084C44.4429 6.112 44.3169 6.11667 44.1676 6.098C44.0276 6.07 43.8689 6.056 43.6916 6.056C43.2249 6.056 42.8096 6.154 42.4456 6.35C42.0816 6.546 41.7969 6.81667 41.5916 7.162C41.3863 7.498 41.2836 7.88533 41.2836 8.324H40.7236ZM40.8636 13C40.7423 13 40.6396 12.9627 40.5556 12.888C40.4809 12.804 40.4436 12.7013 40.4436 12.58V5.762C40.4436 5.63133 40.4809 5.52867 40.5556 5.454C40.6396 5.37933 40.7423 5.342 40.8636 5.342C40.9943 5.342 41.0969 5.37933 41.1716 5.454C41.2463 5.52867 41.2836 5.63133 41.2836 5.762V12.58C41.2836 12.7013 41.2463 12.804 41.1716 12.888C41.0969 12.9627 40.9943 13 40.8636 13Z" fill="#758494"/>
<path d="M80.968 13C80.8747 13 80.7907 12.9767 80.716 12.93C80.6507 12.8833 80.604 12.818 80.576 12.734L78.308 5.944C78.2707 5.73867 78.28 5.58933 78.336 5.496C78.392 5.39333 78.49 5.342 78.63 5.342C78.7047 5.342 78.7793 5.36533 78.854 5.412C78.9287 5.44933 78.9847 5.51 79.022 5.594L81.094 11.838H80.912L82.816 5.678C82.844 5.57533 82.8953 5.496 82.97 5.44C83.0447 5.37467 83.1333 5.342 83.236 5.342C83.3387 5.342 83.4227 5.37467 83.488 5.44C83.5627 5.496 83.6187 5.57533 83.656 5.678L85.616 11.838H85.364L87.436 5.594C87.5107 5.426 87.6413 5.342 87.828 5.342C87.996 5.342 88.108 5.40733 88.164 5.538C88.2293 5.66867 88.2293 5.804 88.164 5.944L85.91 12.734C85.882 12.818 85.8307 12.8833 85.756 12.93C85.6907 12.9767 85.6067 13 85.504 13C85.4107 13 85.3267 12.9767 85.252 12.93C85.1773 12.8833 85.1307 12.818 85.112 12.734L83.11 6.518H83.292L81.36 12.734C81.3227 12.8273 81.2667 12.8973 81.192 12.944C81.1267 12.9813 81.052 13 80.968 13ZM92.9729 13.084C92.2262 13.084 91.5542 12.916 90.9569 12.58C90.3689 12.2347 89.9022 11.768 89.5569 11.18C89.2209 10.5827 89.0529 9.91533 89.0529 9.178C89.0529 8.43133 89.2209 7.764 89.5569 7.176C89.9022 6.57867 90.3689 6.112 90.9569 5.776C91.5542 5.43067 92.2262 5.258 92.9729 5.258C93.7196 5.258 94.3869 5.43067 94.9749 5.776C95.5629 6.112 96.0249 6.57867 96.3609 7.176C96.7062 7.764 96.8789 8.43133 96.8789 9.178L96.5289 9.738C96.5289 10.3727 96.3702 10.942 96.0529 11.446C95.7449 11.95 95.3249 12.3513 94.7929 12.65C94.2609 12.9393 93.6542 13.084 92.9729 13.084ZM92.9729 12.3C93.5609 12.3 94.0836 12.1647 94.5409 11.894C95.0076 11.614 95.3716 11.2407 95.6329 10.774C95.9036 10.298 96.0389 9.766 96.0389 9.178C96.0389 8.58067 95.9036 8.04867 95.6329 7.582C95.3716 7.106 95.0076 6.73267 94.5409 6.462C94.0836 6.182 93.5609 6.042 92.9729 6.042C92.3942 6.042 91.8716 6.182 91.4049 6.462C90.9382 6.73267 90.5696 7.106 90.2989 7.582C90.0282 8.04867 89.8929 8.58067 89.8929 9.178C89.8929 9.766 90.0282 10.298 90.2989 10.774C90.5696 11.2407 90.9382 11.614 91.4049 11.894C91.8716 12.1647 92.3942 12.3 92.9729 12.3ZM96.4589 13C96.3376 13 96.2349 12.9627 96.1509 12.888C96.0762 12.804 96.0389 12.7013 96.0389 12.58V10.018L96.3049 9.178H96.8789V12.58C96.8789 12.7013 96.8416 12.804 96.7669 12.888C96.6922 12.9627 96.5896 13 96.4589 13ZM99.2548 8.324C99.3108 7.72667 99.4742 7.19933 99.7448 6.742C100.016 6.27533 100.366 5.91133 100.795 5.65C101.224 5.38867 101.7 5.258 102.223 5.258C102.578 5.258 102.853 5.3 103.049 5.384C103.245 5.468 103.32 5.61733 103.273 5.832C103.245 5.972 103.18 6.056 103.077 6.084C102.974 6.112 102.848 6.11667 102.699 6.098C102.559 6.07 102.4 6.056 102.223 6.056C101.756 6.056 101.341 6.154 100.977 6.35C100.613 6.546 100.328 6.81667 100.123 7.162C99.9175 7.498 99.8148 7.88533 99.8148 8.324H99.2548ZM99.3948 13C99.2735 13 99.1708 12.9627 99.0868 12.888C99.0122 12.804 98.9748 12.7013 98.9748 12.58V5.762C98.9748 5.63133 99.0122 5.52867 99.0868 5.454C99.1708 5.37933 99.2735 5.342 99.3948 5.342C99.5255 5.342 99.6282 5.37933 99.7028 5.454C99.7775 5.52867 99.8148 5.63133 99.8148 5.762V12.58C99.8148 12.7013 99.7775 12.804 99.7028 12.888C99.6282 12.9627 99.5255 13 99.3948 13ZM115.656 13C115.534 13 115.432 12.9627 115.348 12.888C115.273 12.804 115.236 12.7013 115.236 12.58V8.534C115.236 7.81533 115.044 7.22733 114.662 6.77C114.288 6.31267 113.798 6.084 113.192 6.084C112.548 6.084 112.02 6.29867 111.61 6.728C111.208 7.148 111.017 7.71733 111.036 8.436H110.196C110.214 7.792 110.354 7.232 110.616 6.756C110.877 6.28 111.232 5.91133 111.68 5.65C112.128 5.37933 112.632 5.244 113.192 5.244C113.761 5.244 114.26 5.384 114.69 5.664C115.119 5.944 115.455 6.33133 115.698 6.826C115.95 7.32067 116.076 7.89 116.076 8.534V12.58C116.076 12.7013 116.038 12.804 115.964 12.888C115.889 12.9627 115.786 13 115.656 13ZM105.534 13C105.412 13 105.31 12.9627 105.226 12.888C105.151 12.804 105.114 12.7013 105.114 12.58V5.762C105.114 5.63133 105.151 5.52867 105.226 5.454C105.31 5.37933 105.412 5.342 105.534 5.342C105.664 5.342 105.767 5.37933 105.842 5.454C105.916 5.52867 105.954 5.63133 105.954 5.762V12.58C105.954 12.7013 105.916 12.804 105.842 12.888C105.767 12.9627 105.664 13 105.534 13ZM110.616 13C110.494 13 110.392 12.9627 110.308 12.888C110.233 12.804 110.196 12.7013 110.196 12.58V8.534C110.196 7.81533 110.004 7.22733 109.622 6.77C109.248 6.31267 108.758 6.084 108.152 6.084C107.508 6.084 106.98 6.28933 106.57 6.7C106.159 7.11067 105.954 7.64267 105.954 8.296L105.254 8.296C105.282 7.69867 105.422 7.17133 105.674 6.714C105.935 6.25667 106.28 5.89733 106.71 5.636C107.139 5.37467 107.62 5.244 108.152 5.244C108.721 5.244 109.22 5.384 109.65 5.664C110.079 5.944 110.415 6.33133 110.658 6.826C110.91 7.32067 111.036 7.89 111.036 8.534V12.58C111.036 12.7013 110.998 12.804 110.924 12.888C110.849 12.9627 110.746 13 110.616 13ZM121.845 13.07C121.108 13.07 120.45 12.9067 119.871 12.58C119.302 12.244 118.854 11.782 118.527 11.194C118.201 10.606 118.037 9.934 118.037 9.178C118.037 8.41267 118.191 7.74067 118.499 7.162C118.807 6.574 119.232 6.112 119.773 5.776C120.315 5.44 120.935 5.272 121.635 5.272C122.326 5.272 122.937 5.43533 123.469 5.762C124.001 6.07933 124.417 6.52267 124.715 7.092C125.014 7.652 125.163 8.30067 125.163 9.038C125.163 9.15933 125.126 9.25733 125.051 9.332C124.977 9.39733 124.879 9.43 124.757 9.43H118.597V8.702H124.981L124.365 9.164C124.384 8.55733 124.281 8.02067 124.057 7.554C123.833 7.08733 123.511 6.72333 123.091 6.462C122.681 6.19133 122.195 6.056 121.635 6.056C121.103 6.056 120.627 6.19133 120.207 6.462C119.797 6.72333 119.47 7.08733 119.227 7.554C118.994 8.02067 118.877 8.562 118.877 9.178C118.877 9.78467 119.003 10.3213 119.255 10.788C119.507 11.2547 119.857 11.6233 120.305 11.894C120.753 12.1553 121.267 12.286 121.845 12.286C122.209 12.286 122.573 12.2253 122.937 12.104C123.311 11.9733 123.605 11.8053 123.819 11.6C123.894 11.5253 123.983 11.488 124.085 11.488C124.197 11.4787 124.291 11.5067 124.365 11.572C124.468 11.656 124.519 11.7493 124.519 11.852C124.529 11.9547 124.487 12.048 124.393 12.132C124.095 12.4027 123.703 12.6267 123.217 12.804C122.741 12.9813 122.284 13.07 121.845 13.07ZM127.269 8.324C127.325 7.72667 127.488 7.19933 127.759 6.742C128.029 6.27533 128.379 5.91133 128.809 5.65C129.238 5.38867 129.714 5.258 130.237 5.258C130.591 5.258 130.867 5.3 131.063 5.384C131.259 5.468 131.333 5.61733 131.287 5.832C131.259 5.972 131.193 6.056 131.091 6.084C130.988 6.112 130.862 6.11667 130.713 6.098C130.573 6.07 130.414 6.056 130.237 6.056C129.77 6.056 129.355 6.154 128.991 6.35C128.627 6.546 128.342 6.81667 128.137 7.162C127.931 7.498 127.829 7.88533 127.829 8.324L127.269 8.324ZM127.409 13C127.287 13 127.185 12.9627 127.101 12.888C127.026 12.804 126.989 12.7013 126.989 12.58V5.762C126.989 5.63133 127.026 5.52867 127.101 5.454C127.185 5.37933 127.287 5.342 127.409 5.342C127.539 5.342 127.642 5.37933 127.717 5.454C127.791 5.52867 127.829 5.63133 127.829 5.762V12.58C127.829 12.7013 127.791 12.804 127.717 12.888C127.642 12.9627 127.539 13 127.409 13Z" fill="#758494"/>
</svg>
